<svg width="52" height="52" viewBox="0 0 52 52" fill="none" xmlns="http://www.w3.org/2000/svg">
<path d="M43.6349 32.0496C43.656 32.5556 43.6589 33.0635 43.7029 33.5667C43.8188 34.9085 44.3897 35.9062 45.268 36.6786C45.8791 37.2163 46.5275 37.6773 47.1664 38.1603C48.0246 38.8091 48.8119 39.5567 49.4 40.5812C49.9268 41.4994 50.2975 42.5018 50.4067 43.6232C50.4871 44.4541 50.3617 45.2524 49.9843 45.9597C49.4479 46.9632 48.652 47.2411 47.7296 47.1117C47.2315 47.0418 46.7517 46.8683 46.2785 46.6689C45.1023 46.1735 43.9031 46.0239 42.6628 46.185C42.0229 46.2683 41.3745 46.3901 40.7232 46.2195C40.2625 46.0987 39.8449 45.9156 39.6753 45.3186C39.502 44.7081 39.7165 44.2126 40.0374 43.765C40.5728 43.0184 41.2663 42.6216 42.0392 42.4156C42.6637 42.2488 43.2968 42.1654 43.9347 42.2852C44.202 42.336 44.4596 42.269 44.7153 42.2124C45.0286 42.1434 45.1445 41.8885 45.064 41.4926C44.8973 40.6694 44.474 40.0857 43.9031 39.6449C43.2566 39.1446 42.5296 38.9241 41.7931 38.743C41.3036 38.6222 40.8161 38.4967 40.3477 38.2734C39.5029 37.8699 39.024 37.1147 38.8631 36.0269C38.7606 35.3311 38.7338 34.6267 38.6639 33.9271C38.6313 33.606 38.5997 33.2859 38.4982 32.985C38.3018 32.3984 37.8402 32.247 37.4331 32.6438C37.0442 33.0223 36.8881 33.5466 36.8536 34.136C36.7981 35.0714 36.9379 35.9704 37.1975 36.8463C37.3766 37.454 37.5978 38.0386 37.8095 38.629C38.2204 39.7752 38.5173 40.954 38.5068 42.2277C38.4905 44.1225 37.5806 45.7796 36.1525 46.5099C35.4255 46.8817 34.6583 46.9756 33.8863 47.06C33.1287 47.1424 32.3729 47.2382 31.6182 47.3561C31.1527 47.429 30.6815 47.5334 30.2035 47.3945C29.5962 47.2181 29.0838 46.876 28.7304 46.2281C28.2419 45.3339 28.2333 44.4091 28.6777 43.4967C29.1518 42.5229 29.8807 42.0255 30.7839 41.8473C31.4372 41.7188 32.076 41.8137 32.7206 41.9086C33.1057 41.9651 33.4955 41.9776 33.8806 41.9249C34.4955 41.8405 34.9533 41.277 35.0644 40.5285C35.1966 39.6334 35.0213 38.789 34.7866 37.9581C34.5549 37.1406 34.2043 36.3959 33.8336 35.6637C33.5032 35.012 33.1488 34.3785 32.8557 33.698C32.6488 33.2169 32.4984 32.7128 32.441 32.177C32.3461 31.2896 32.5779 30.5085 33.0262 29.8203C33.5922 28.9501 34.3125 28.3281 35.1315 27.8671C36.1362 27.3026 37.2042 26.9806 38.2645 26.6308C38.8315 26.4439 39.3947 26.2417 39.9196 25.9062C40.2222 25.7126 40.4991 25.4798 40.7222 25.1616C41.0622 24.6766 41.0718 24.1112 40.75 23.6051C40.5517 23.2927 40.2826 23.1001 39.9905 22.9525C39.1715 22.5404 38.3344 22.5471 37.4944 22.8192C37.254 22.8969 36.9618 22.8681 36.8076 23.2016C36.7942 23.2314 36.7425 23.2381 36.708 23.2476C35.7435 23.5256 34.9993 24.1572 34.5912 25.2957C34.278 26.1688 33.7723 26.8273 33.1564 27.3803C32.7522 27.7425 32.3567 28.1182 32.0368 28.5993C31.4898 29.4236 31.2274 30.3915 31.1067 31.4247C30.9822 32.4818 31.0435 33.5399 31.1393 34.596C31.1795 35.0407 31.1939 35.4845 31.0971 35.9234C30.9257 36.7026 30.351 37.1281 29.7121 36.9412C29.3396 36.8329 29.0187 36.6058 28.7342 36.2895C28.0877 35.5688 27.6653 34.6708 27.3779 33.6731C26.6366 31.1008 26.7697 28.56 27.6509 26.0855C28.6748 23.2093 30.3807 21.0845 32.5837 19.5406C34.0108 18.54 35.5414 17.9046 37.1678 17.641C38.0106 17.504 38.8631 17.5337 39.7127 17.5874C41.385 17.6918 42.9798 18.2496 44.5726 18.8237C44.9443 18.9579 45.3216 19.0595 45.7038 19.14C45.9394 19.1898 46.1741 19.2061 46.4078 19.115C46.7421 18.9857 46.8637 18.8103 46.8733 18.3895C46.8781 18.1911 46.858 17.9918 46.8465 17.7925C46.8379 17.6544 46.8187 17.5184 46.8149 17.3803C46.789 16.4603 47.0907 15.9207 47.8033 15.6782C48.4355 15.4626 49.0408 15.5488 49.5916 16.0242C50.1931 16.5446 50.4824 17.4474 50.3243 18.3301C50.2151 18.9387 49.991 19.4859 49.7314 20.014C49.5887 20.3035 49.447 20.5929 49.3062 20.8833C49.0906 21.327 49.1079 21.7621 49.356 22.1762C49.5121 22.4349 49.6787 22.6851 49.8425 22.9362C49.9441 23.0914 50.0542 23.239 50.1548 23.3962C50.5187 23.9636 50.6184 24.6076 50.5149 25.3082C50.4115 26.0107 50.1806 26.6576 49.9402 27.2998C49.6998 27.9419 49.4412 28.5735 49.1998 29.2146C49.037 29.6469 48.9259 30.1002 48.8301 30.564C48.6386 31.4908 48.9805 32.615 49.7975 33.1824C50.1241 33.4095 50.4718 33.584 50.8205 33.7517C51.0302 33.8523 51.2409 33.951 51.4315 34.0996C51.9028 34.4666 52.1039 35.1136 51.9469 35.7777C51.6959 36.8377 51.0513 37.339 50.2257 37.5134C49.0657 37.7587 48.1501 37.1856 47.4269 36.1045C46.653 34.9458 46.2421 33.5887 46.0582 32.1195C45.8743 30.6474 46.0141 29.2118 46.3925 27.8048C46.5141 27.3525 46.6406 26.903 46.7718 26.4544C46.8656 26.1353 46.9365 25.8085 46.97 25.473C47.0294 24.875 46.7095 24.4552 46.221 24.4859C45.9528 24.5022 45.7134 24.6325 45.4883 24.8079C44.904 25.2632 44.5353 25.9254 44.2824 26.6988C44.0104 27.5317 43.8773 28.4057 43.7958 29.2932C43.7116 30.2094 43.6503 31.1276 43.634 32.0515L43.6349 32.0496Z" fill="#F8F4E8"/>
<path d="M19.4218 46.02C20.1823 45.9529 20.9151 46.1311 21.6325 46.4187C21.9782 46.5576 22.3307 46.6563 22.6937 46.6841C23.2751 46.7273 23.778 46.4877 24.1822 45.9759C24.8 45.1948 24.6486 44.1358 23.8584 43.6441C23.4705 43.4035 23.0452 43.3575 22.6248 43.2885C22.3757 43.2473 22.1315 43.1889 21.8959 43.0844C21.4332 42.8793 21.2733 42.5477 21.3317 41.9487C21.3633 41.6238 21.4649 41.3257 21.5721 41.0315C21.8288 40.3271 22.1784 39.6898 22.5127 39.0409C22.8613 38.3633 23.1707 37.6618 23.323 36.874C23.504 35.9319 23.5452 34.9898 23.2799 34.0582C23.074 33.3375 22.6784 32.8334 22.1085 32.5296C21.439 32.174 20.7513 32.1673 20.0502 32.3379C19.5473 32.4596 19.0531 32.6178 18.5665 32.8152C18.3644 32.8976 18.1594 32.958 17.9439 32.9676C17.3846 32.9944 17.1623 32.75 17.1288 32.0686C17.103 31.5376 17.192 31.0297 17.3261 30.5304C17.3807 30.3262 17.443 30.124 17.5187 29.9304C17.919 28.9097 17.9439 27.8679 17.6824 26.7907C17.5426 26.2147 17.375 25.6531 17.193 25.0991C16.9037 24.2212 16.9277 23.3663 17.2102 22.499C17.5349 21.5023 18.0119 20.6579 18.7753 20.1001C19.2858 19.7264 19.827 19.5577 20.4247 19.7647C21.5951 20.1711 22.3298 22.0179 21.2149 23.3788C21.0358 23.5973 20.8269 23.7641 20.6239 23.9433C20.3404 24.1934 20.0348 24.41 19.7868 24.7177C19.4975 25.0761 19.3682 25.494 19.4295 26.0106C19.6153 27.5708 21.0128 28.212 21.893 27.9149C22.7991 27.6082 23.5088 26.9412 24.0366 26.0086C25.9934 22.5498 24.3709 18.6146 21.7378 17.6064C19.555 16.7707 17.4286 16.9566 15.3396 18.0578C14.6241 18.4344 13.9556 18.9088 13.3301 19.4781C12.9585 19.8164 12.5859 20.1538 12.1855 20.4394C11.9691 20.5937 11.7497 20.7403 11.5036 20.8132C11.1597 20.9157 10.9911 20.7873 10.8925 20.3627C10.8494 20.1787 10.8638 20.0024 10.882 19.8164C10.9251 19.3612 11.0122 18.9117 10.9375 18.4431C10.7728 17.409 9.96724 16.856 9.17226 17.2508C8.31885 17.6744 7.93955 18.6137 8.16368 19.7657C8.25467 20.2324 8.41175 20.6665 8.61481 21.0758C8.72592 21.2991 8.84373 21.5166 8.94142 21.7486C9.08318 22.085 9.05541 22.3188 8.84373 22.5881C8.656 22.8277 8.43474 22.9897 8.14835 22.9686C8.03629 22.96 7.92327 22.9724 7.8112 22.9657C7.32559 22.9389 6.90415 23.1459 6.52965 23.5092C6.36299 23.6711 6.20591 23.8475 6.04691 24.02C5.2615 24.8662 3.97803 24.7071 3.35832 23.673C3.0001 23.075 2.98382 22.4204 3.21465 21.7505C3.38035 21.2694 3.66291 20.9052 4.00676 20.6081C4.38702 20.2803 4.80654 20.0398 5.22223 19.7934C5.52586 19.6133 5.83619 19.4465 6.11396 19.2088C6.81316 18.6098 6.86871 17.6323 6.22315 16.9489C5.59865 16.2876 4.86688 16.2148 4.10638 16.4851C3.04703 16.8608 2.22331 17.6754 1.54326 18.7095C-0.632891 22.0198 -0.29574 26.9594 2.28844 29.7981C2.85643 30.423 3.49625 30.8955 4.24622 31.0939C5.39655 31.3987 6.39268 30.9856 7.25663 30.0377C7.63401 29.6237 7.91656 29.1177 8.17805 28.5915C8.36003 28.2245 8.52765 27.8449 8.75848 27.5181C9.29103 26.7667 9.86093 26.8932 10.1473 27.8296C10.2814 28.2685 10.3092 28.7305 10.2891 29.1924C10.1933 31.3833 9.53431 33.3068 8.44336 35.0224C7.46735 36.5568 6.19633 37.6292 4.80654 38.5071C4.22898 38.8713 3.63322 39.1914 3.04991 39.5403C2.27216 40.0051 1.51836 40.5169 0.914938 41.3027C0.576829 41.7426 0.299063 42.2324 0.131445 42.8055C-0.19038 43.9057 0.0864282 44.9399 0.877583 45.5897C1.5969 46.18 2.39764 46.2375 3.2204 46.1014C3.57862 46.042 3.93493 45.9529 4.28549 45.8446C4.90519 45.6529 5.52011 45.6634 6.14077 45.8235C6.47026 45.9088 6.80167 45.9922 7.14265 45.9692C7.4434 45.949 7.68765 45.7602 7.75757 45.4699C7.83802 45.1363 7.73841 44.8709 7.53248 44.6495C7.31218 44.4137 7.0507 44.2661 6.78538 44.131C6.56509 44.0198 6.34862 43.9 6.15323 43.7323C5.90132 43.5166 5.886 43.325 6.11012 43.0576C6.37257 42.7432 6.69152 42.5295 7.02675 42.3531C7.80258 41.9439 8.62056 41.7407 9.45386 41.6209C9.90116 41.5567 10.3427 41.4551 10.7804 41.3305C11.6463 41.0852 12.3273 40.4919 12.8598 39.6332C13.1778 39.1205 13.4786 38.5905 13.7851 38.0672C14.0207 37.6666 14.2889 37.3024 14.5925 36.9794C15.2496 36.2788 16.0024 35.9252 16.875 36.1245C18.1518 36.4168 18.9822 37.8583 18.8146 39.4492C18.7284 40.2715 18.4813 41.0219 18.1384 41.7273C17.9267 42.1624 17.6978 42.5841 17.4823 43.0173C17.3788 43.2262 17.2773 43.44 17.1968 43.6642C16.8903 44.5182 17.1537 45.3807 17.8386 45.789C18.2083 46.0094 18.6058 46.0487 19.0071 46.0468C19.1441 46.0468 19.282 46.0286 19.419 46.019L19.4218 46.02Z" fill="#F8F4E8"/>
<path d="M30.3935 7.48331C30.6962 7.55711 30.9567 7.45456 31.2153 7.34722C31.7373 7.12966 32.2497 6.87473 32.7909 6.72713C33.5485 6.52012 34.3014 6.49904 35.0542 6.77026C35.3693 6.88431 35.6528 7.06832 35.9229 7.2945C36.1423 7.47852 36.2601 7.73153 36.2419 8.05355C36.2208 8.412 36.0312 8.62859 35.7707 8.74648C35.2841 8.96595 34.7851 8.9487 34.2813 8.85957C33.6395 8.74552 32.9968 8.6353 32.3532 8.53179C32.1147 8.49346 31.8714 8.45416 31.5936 8.62763C31.7785 8.81452 31.9739 8.7666 32.1453 8.79056C33.0265 8.9142 33.8579 9.21322 34.6213 9.78346C35.128 10.162 35.581 10.6 35.8502 11.2719C35.944 11.5057 36.0264 11.7434 36.0388 12.0089C36.0637 12.5714 35.7841 12.8848 35.3396 12.7669C35.0044 12.6778 34.6998 12.489 34.3962 12.2964C33.9364 12.0041 33.4748 11.7137 33.0064 11.4424C32.7727 11.3064 32.5227 11.2086 32.2593 11.1856C32.1913 11.1798 32.1195 11.1913 32.0831 11.2594C32.0285 11.3619 32.0802 11.453 32.1472 11.5153C32.3915 11.7453 32.6348 11.9772 32.8857 12.1938C33.2018 12.466 33.4326 12.8187 33.5629 13.2615C33.7727 13.9736 33.5102 14.702 32.9796 14.9339C32.6932 15.0594 32.4288 14.9703 32.1817 14.8131C31.8771 14.6195 31.6051 14.3636 31.425 13.9918C31.2153 13.5586 30.9155 13.2164 30.654 12.836C30.54 12.6702 30.3896 12.5427 30.2517 12.4028C30.199 12.3491 30.1272 12.3328 30.0774 12.3941C30.0487 12.4286 30.0372 12.5072 30.0448 12.5599C30.0621 12.6769 30.1004 12.789 30.1224 12.9059C30.1866 13.2356 30.268 13.5634 30.3044 13.8979C30.3628 14.4374 30.2584 14.9281 29.9309 15.323C29.8849 15.3786 29.8466 15.4466 29.7987 15.4984C29.0746 16.2843 28.7633 17.3021 28.6665 18.456C28.61 19.1326 28.4884 19.7882 28.1599 20.369C27.9922 20.6651 27.7739 20.8577 27.5239 20.9948C26.8697 21.3523 26.2519 20.9152 26.181 20.0364C26.1101 19.1614 26.3007 18.3314 26.5593 17.5292C26.8591 16.5996 27.2643 15.7389 27.7346 14.9224C27.8754 14.679 28.0085 14.4288 28.0986 14.148C28.1532 13.9784 28.1924 13.8078 28.1704 13.6228C28.1292 13.2787 27.9472 13.1819 27.7298 13.4014C27.4367 13.6956 27.2758 14.1231 27.0392 14.4748C26.6772 15.0144 26.3007 15.5358 25.7912 15.875C25.6782 15.9507 25.5575 16.0169 25.4339 16.0581C24.4627 16.3839 23.7031 15.5108 23.8976 14.2898C23.9867 13.7292 24.1926 13.2327 24.5269 12.834C24.8286 12.4737 25.1293 12.1172 25.4895 11.8306C25.7692 11.6073 26.0364 11.3246 26.1983 10.9412C26.3841 10.5003 26.2452 10.1754 25.8419 10.1707C25.5862 10.1678 25.3276 10.2454 25.0728 10.3C24.5096 10.4218 23.9474 10.4879 23.3794 10.3432C22.8402 10.2052 22.4216 9.86301 22.1812 9.23909C21.8708 8.43596 22.0749 7.47468 22.7003 6.82489C23.3919 6.10705 24.1677 6.01696 24.9761 6.46262C25.3879 6.68976 25.7701 6.99836 26.1638 7.27342C26.3764 7.42197 26.59 7.56477 26.8352 7.61078C26.9952 7.64049 27.1695 7.68361 27.2882 7.50248C27.4061 7.32326 27.3553 7.12391 27.2796 6.93798C27.1714 6.67059 27.0622 6.4032 26.9463 6.1406C26.8371 5.89333 26.7509 5.63552 26.7069 5.36142C26.6293 4.87934 26.8218 4.33114 27.1321 4.1155C27.431 3.90753 27.9443 3.98899 28.2288 4.29089C28.4462 4.52186 28.566 4.82088 28.634 5.1592C28.6924 5.44959 28.746 5.74286 28.8265 6.02367C28.9022 6.28819 29.0257 6.31311 29.1761 6.09651C29.3428 5.85403 29.4826 5.58185 29.6464 5.3365C30.11 4.64166 30.6818 4.19601 31.4394 4.20272C31.6022 4.20463 31.7632 4.2353 31.9164 4.30718C32.5572 4.60524 32.7037 5.4055 32.2421 6.0323C32.0294 6.32077 31.7699 6.51533 31.4873 6.67346C31.2067 6.83064 30.9251 6.98398 30.6454 7.14308C30.5448 7.20058 30.4299 7.24371 30.3916 7.48618L30.3935 7.48331Z" fill="#F8F4E8"/>
</svg>
