<svg width="52" height="52" viewBox="0 0 52 52" fill="none" xmlns="http://www.w3.org/2000/svg">
<path d="M24.7995 16.2032C24.2482 17.0736 25.5402 17.9307 26.1406 17.0933C27.9963 14.5067 29.2862 11.827 32.1853 9.68601C41.2261 3.00965 50.9012 8.33999 48.1914 19.9631C45.7834 30.2899 35.6858 23.1101 29.5941 22.3823C28.3952 22.282 28.5978 23.8068 29.501 24.1118C32.0277 25.004 34.0501 25.3079 37.1609 25.7938C40.5141 26.3169 43.8848 27.1192 46.5281 29.4163C50.6097 32.1911 51.4137 38.885 47.2094 42.2656C41.9023 46.5331 34.3365 44.6495 32.6323 37.632C31.9715 34.7156 31.6134 31.3609 29.4366 29.161C29.0878 28.8084 28.609 28.5882 28.117 28.6192C26.2716 28.735 27.717 31.9574 28.8167 32.9054C33.2665 37.0293 32.6374 45.6544 27.0725 48.4736C22.6554 50.6425 15.9786 53.2498 12.7829 47.5897C5.35833 34.4427 16.2917 33.5309 20.7016 31.2327C22.0529 30.5287 21.0392 28.4187 19.6664 29.0803C18.6833 29.5538 17.777 30.384 16.885 31.1262C13.2494 34.1512 7.57712 32.1352 6.95005 27.4179C6.45085 23.6642 9.20668 19.6065 18.2578 22.7224C19.4014 22.9374 19.6991 21.1789 19.1989 20.4335C16.7939 18.0495 13.4345 20.4552 10.7432 20.8202C6.00484 22.1011 2.53499 17.2525 2.00817 13.0345C1.69616 5.04316 10.3913 1.93966 16.7888 0.400314C24.2073 -1.38404 33.0527 2.91661 29.0898 10.9111C28.3205 12.6758 25.9718 14.3537 24.8006 16.2021L24.7995 16.2032ZM22.0202 25.5085C25.3151 28.8818 28.3686 24.484 25.7867 21.3319C22.9388 18.3669 20.142 22.7255 22.0202 25.5085Z" fill="#F8F4E8"/>
</svg>
