<svg width="52" height="52" viewBox="0 0 52 52" fill="none" xmlns="http://www.w3.org/2000/svg">
<path d="M4.43761 40.8614C5.17777 40.8184 5.89187 40.9566 6.57082 41.2207C7.59662 41.6209 8.61335 42.0493 9.61875 42.4982C10.5029 42.8926 11.2102 43.5387 11.8778 44.2233C12.3527 44.7107 12.8752 45.1324 13.4148 45.545C14.3635 46.2693 15.421 46.5855 16.5897 46.4121C18.4826 46.131 20.2145 46.6433 21.9079 47.3948C22.4577 47.6385 22.9938 47.9105 23.5436 48.1554C24.6634 48.653 25.8162 48.7799 26.9825 48.3492C28.3926 47.8289 29.8706 47.7575 31.3419 47.6272C31.8157 47.5852 32.2929 47.541 32.7565 47.4401C33.8095 47.2134 34.7525 46.7465 35.4836 45.9451C36.5264 44.8025 37.737 43.8878 39.0745 43.1227C40.505 42.3055 41.5716 41.1301 42.3695 39.6973C42.7764 38.9662 43.0666 38.2215 43.0938 37.359C43.1392 35.8843 43.7365 34.5944 44.6002 33.4179C45.1636 32.6505 45.7416 31.8922 46.28 31.1067C46.7799 30.3779 47.1188 29.5742 47.2922 28.698C47.4033 28.137 47.3421 27.6042 47.1506 27.0783C47.0565 26.8199 46.9635 26.5592 46.8456 26.3109C46.373 25.3225 46.1803 24.2911 46.1531 23.1882C46.1134 21.5639 46.0828 19.9317 45.7756 18.3244C45.5659 17.225 45.1908 16.198 44.4789 15.3196C43.7093 14.3686 43.1652 13.3111 42.8773 12.1198C42.8127 11.8534 42.7062 11.5961 42.6132 11.3377C42.2188 10.2371 41.5126 9.44022 40.3825 9.06163C39.5517 8.78393 38.7209 8.50396 37.8866 8.23306C36.2102 7.69012 34.8183 6.7346 33.8231 5.28148C33.0013 4.07999 31.8837 3.62206 30.4827 3.6402C29.0307 3.65947 27.6615 4.03805 26.3126 4.51978C25.1316 4.94143 23.9935 5.4685 22.8737 6.02957C21.4829 6.72553 20.0162 7.08484 18.469 7.16759C16.7404 7.26053 15.3474 7.99276 14.2944 9.37674C13.7288 10.1192 13.2538 10.9183 12.8707 11.7616C12.1407 13.3689 11.0821 14.712 9.7457 15.85C9.68789 15.8988 9.63689 15.9543 9.57681 15.9997C7.99787 17.1989 7.21691 18.7982 7.11036 20.7716C7.05142 21.8632 6.60483 22.8584 6.14463 23.8366C5.77852 24.6153 5.52575 25.411 5.56543 26.2951C5.62777 27.6575 6.07436 28.8307 7.06502 29.7919C8.05115 30.7485 9.16196 31.4966 10.4677 31.9421C10.7046 32.0225 10.9347 32.1212 11.1671 32.2141C12.1747 32.6154 12.8038 33.3226 13.0056 34.4119C13.1144 35.0013 13.2663 35.5828 13.5553 36.1223C13.8942 36.7548 14.3884 37.1821 15.0753 37.376C15.5094 37.4984 15.9504 37.5936 16.3856 37.7103C18.2831 38.2193 19.8858 39.1771 21.0828 40.7673C21.3684 41.1471 21.679 41.5109 22.0077 41.8544C23.2557 43.1522 24.77 43.4072 26.4283 42.8768C27.5198 42.5276 28.4663 41.9156 29.1974 41.011C29.5283 40.6019 29.857 40.1893 30.1676 39.7653C31.1821 38.3802 32.5763 37.6151 34.2221 37.2422C34.8069 37.1096 35.3805 36.926 35.962 36.7752C36.5978 36.6097 36.9288 36.1858 37.0252 35.5567C37.1193 34.9379 37.2473 34.3224 37.2927 33.7001C37.3935 32.3252 37.8027 31.0523 38.4511 29.844C38.9963 28.8284 39.5143 27.806 39.7954 26.6714C40.2375 24.8873 40.0244 23.2426 38.9033 21.7543C38.5565 21.2942 38.2097 20.8328 37.8447 20.3874C37.2179 19.6223 36.6953 18.8005 36.4664 17.828C36.2113 16.7455 35.5312 16.0847 34.4998 15.7526C33.9999 15.5916 33.4955 15.4409 32.9888 15.3014C31.7262 14.9546 30.7944 14.2337 30.315 12.9846C30.2617 12.8452 30.1903 12.7103 30.1166 12.58C29.6859 11.8092 29.0942 11.5338 28.2328 11.7253C27.7408 11.8341 27.2738 12.02 26.8556 12.3068C26.6493 12.4485 26.4407 12.5913 26.2537 12.7568C25.3458 13.5604 24.3121 14.0705 23.0868 14.1691C21.8751 14.2666 21.1383 14.9931 20.6838 16.0597C20.5568 16.359 20.465 16.673 20.3596 16.9801C19.9334 18.2145 19.1275 19.0839 17.8954 19.5441C17.637 19.6404 17.3808 19.7402 17.1201 19.8274C16.27 20.1119 15.9164 20.7535 15.845 21.5957C15.7996 22.1273 15.8937 22.6532 16.0252 23.1576C16.3913 24.5586 16.4888 25.9573 16.2609 27.3968C16.0819 28.5258 16.6135 29.4053 17.6495 29.8757C18.0133 30.0412 18.3953 30.1682 18.7727 30.3031C19.8144 30.676 20.5818 31.3515 21.068 32.3479C21.2437 32.7083 21.4251 33.0665 21.6223 33.4156C22.2299 34.4913 23.3747 34.8857 24.5149 34.3904C24.9037 34.2215 25.2835 34.0129 25.6269 33.7658C26.3784 33.2263 27.2092 33.037 28.1137 33.0982C28.5139 33.1254 28.9151 33.1447 29.3118 33.1957C30.2096 33.3102 30.8137 32.9135 31.1843 32.1291C31.3872 31.6995 31.5652 31.2563 31.7216 30.8075C32.0311 29.9256 32.4198 29.0868 33.0387 28.3761C33.5352 27.806 33.61 27.1554 33.1963 26.5762C32.387 25.4393 32.0934 24.2129 32.1319 22.8312C32.1569 21.9255 31.5913 21.2987 30.7321 20.9756C30.5451 20.9054 30.358 20.8328 30.1665 20.7762C29.4694 20.5687 28.9219 20.1765 28.4844 19.5837C27.785 18.6339 26.9746 18.4639 25.9261 18.983C25.9035 18.9943 25.8819 19.0068 25.8615 19.0204C24.6068 19.8875 23.4121 20.8385 22.138 21.6818C21.7164 21.9606 21.4999 22.4537 21.4001 22.9592C21.2675 23.628 21.0261 24.2525 20.7371 24.868C20.2508 25.904 20.3766 26.5342 21.2585 27.2597C21.9544 27.8321 22.6798 28.3625 23.3259 28.9996C23.8201 29.4869 24.3404 29.4337 24.8607 28.9599C25.1429 28.7037 25.3469 28.3841 25.543 28.0656C25.9171 27.458 26.4362 27.0602 27.1288 26.889C27.2013 26.8709 27.2761 26.8573 27.3475 26.8346C28.3552 26.5036 28.8006 25.8303 28.5411 24.9904C28.2815 24.1505 27.598 23.2925 26.4725 23.6246C25.9409 23.781 25.4841 23.7187 25.0647 23.3718C24.7961 23.1497 24.5354 22.983 24.2032 23.2675C23.8972 23.5294 23.7034 23.959 23.8859 24.2673C24.1953 24.7875 24.3642 25.2931 24.193 25.9018C24.1296 26.1262 24.3019 26.2633 24.5535 26.2599C25.1667 26.2509 25.4659 25.7861 25.2018 25.2421C25.1395 25.114 24.9729 25.0335 25.0295 24.8125C25.475 24.6685 25.8921 24.7932 26.2752 25.0414C26.6606 25.2908 26.783 25.7261 26.6164 26.167C26.5065 26.456 26.3081 26.6793 26.0644 26.8652C25.3243 27.4319 24.4855 27.6144 23.5787 27.4682C22.6866 27.3243 22.282 26.7428 22.4271 25.8564C22.4554 25.6853 22.5166 25.5186 22.5642 25.3497C22.6696 24.9746 22.6719 24.6153 22.452 24.2684C22.1301 23.7606 22.2321 23.2687 22.5291 22.7847C23.0278 21.9742 23.7748 21.5481 24.6986 21.4823C25.3798 21.4336 25.9352 21.2171 26.4623 20.7682C27.2228 20.1187 28.3416 20.3647 28.8528 21.2329C28.9661 21.4256 29.0432 21.6421 29.118 21.853C29.2926 22.3438 29.5714 22.7461 30.0407 22.9944C31.037 23.5203 31.0937 24.4724 30.6663 25.3135C30.4748 25.6909 30.2175 26.0366 29.9772 26.388C29.5249 27.0488 29.4127 27.7142 29.9058 28.4067C29.9783 28.5088 30.0384 28.6198 30.0917 28.7332C30.4306 29.4416 30.29 29.9245 29.6122 30.3133C29.1509 30.5785 28.6454 30.7326 28.1183 30.7905C27.2342 30.8868 26.3977 31.1282 25.6224 31.5624C24.371 32.264 23.2557 31.6757 22.647 30.71C22.5144 30.4991 22.3897 30.277 22.299 30.0446C22.019 29.3362 21.4931 28.9191 20.7813 28.7003C20.2304 28.5303 19.6943 28.324 19.1751 28.0701C17.8546 27.4251 17.5429 26.0446 17.6823 25.0562C17.9283 23.3004 18.7682 21.9504 20.3222 21.0811C20.8889 20.7637 21.229 20.3148 21.3695 19.6914C21.4194 19.4727 21.492 19.2573 21.5668 19.0453C21.9374 17.9991 22.7036 17.429 23.7737 17.2363C24.2202 17.1558 24.6725 17.1467 25.1236 17.1932C25.8468 17.2669 26.5065 17.1093 27.139 16.741C28.3472 16.0371 29.2246 16.2207 30.0792 17.3315C30.3229 17.6489 30.5326 17.9935 30.7548 18.3267C31.0993 18.8447 31.5607 19.1473 32.2033 19.0941C33.0591 19.0238 33.5647 19.4681 33.8809 20.2083C34.0498 20.6027 34.1575 21.0119 34.2039 21.4381C34.3071 22.3857 34.6199 23.2505 35.2977 23.9397C36.6251 25.2897 36.7565 26.7598 35.8418 28.3897C35.079 29.7488 34.6981 31.2098 34.765 32.7854C34.8104 33.8735 34.306 34.7055 33.4366 35.3391C32.2691 36.1892 30.9475 36.6415 29.5283 36.756C28.1364 36.8682 27.0313 37.4508 26.1902 38.5401C24.7893 40.3559 22.9711 40.0136 21.5294 39.0456C20.9853 38.6806 20.5285 38.2057 20.1363 37.6831C19.2794 36.5395 18.2207 35.6372 16.9728 34.9526C15.5128 34.1524 14.5211 32.9928 14.1391 31.3447C14.0541 30.9797 13.9192 30.6261 13.8126 30.2657C13.4964 29.2036 12.9319 28.3081 12.0625 27.6076C11.7894 27.3877 11.5445 27.1338 11.2884 26.8947C10.0166 25.7091 9.7185 24.2775 10.1968 22.6396C10.4983 21.6059 11.0526 20.7229 11.7678 19.9328C12.0206 19.654 12.279 19.3797 12.5477 19.1167C13.2776 18.4015 13.7945 17.5537 14.1572 16.6038C14.2819 16.2762 14.4224 15.9543 14.5619 15.6324C15.1331 14.3051 16.0626 13.2816 17.4092 12.7828C18.8611 12.2456 20.0094 11.4476 20.7314 10.0421C21.1179 9.28946 21.8479 8.98569 22.6764 8.96529C23.1514 8.95395 23.6365 8.93808 24.1012 9.01516C25.4161 9.23392 26.638 8.98456 27.8224 8.41668C28.3393 8.16845 28.8641 7.93042 29.4581 7.89642C30.154 7.85561 30.8058 8.01543 31.4246 8.3056C33.3584 9.21125 35.037 10.4592 36.3859 12.122C36.8903 12.7443 37.3357 13.4153 37.805 14.0648C38.2981 14.7472 38.9067 15.2935 39.6628 15.6732C39.8872 15.7854 40.1014 15.9169 40.3247 16.0291C41.55 16.6446 42.0907 17.6852 42.1496 19.0068C42.1768 19.6064 42.1712 20.2117 42.136 20.8113C42.0646 22.0434 42.3525 23.1984 42.8263 24.3183C43.0213 24.7796 43.231 25.2353 43.4531 25.6841C43.9609 26.7088 43.9915 27.7584 43.6175 28.8216C43.452 29.2931 43.2593 29.7579 43.0451 30.2101C42.1338 32.1359 41.2179 34.0583 40.2896 35.975C39.665 37.266 39.1368 38.5899 38.8784 40.0056C38.6166 41.4418 37.8265 42.4517 36.5355 43.1261C35.3556 43.7427 34.1019 44.0669 32.7905 44.1304C30.6448 44.2324 28.7372 44.9544 26.9825 46.1627C26.409 46.5583 25.8253 46.9493 25.101 47.0604C24.014 47.2282 23.0131 46.9505 22.0372 46.5288C21.3673 46.2387 20.762 45.8306 20.1737 45.4044C19.3225 44.7889 18.3919 44.3979 17.3378 44.3049C15.4879 44.1429 13.9963 43.3245 12.8673 41.8464C12.4865 41.3488 12.0841 40.8671 11.7191 40.3582C10.9336 39.2632 9.9792 38.3564 8.83892 37.6389C8.11802 37.1844 7.42093 36.6936 6.74878 36.1677C5.37387 35.092 4.48068 33.7114 4.07263 32.0169C3.94908 31.5057 3.8176 30.9956 3.72125 30.4799C3.37441 28.6153 2.65351 26.8845 1.86121 25.1763C1.4815 24.358 1.12558 23.5294 1.0349 22.6147C0.834278 20.5971 1.50983 18.8696 2.77026 17.336C3.20212 16.8112 3.70652 16.3567 4.23132 15.9283C5.49742 14.8968 6.33052 13.5876 6.78845 12.0291C6.9086 11.621 7.04688 11.2175 7.16137 10.8072C7.94687 7.9973 9.69129 5.9389 12.185 4.50844C14.8316 2.99071 17.671 2.21088 20.7518 2.47271C21.3752 2.52599 22.0032 2.53619 22.6288 2.56226C24.2679 2.62913 25.8162 2.28569 27.2682 1.52059C27.7782 1.25195 28.2792 0.966317 28.778 0.67728C29.9455 -0.0062089 31.1832 -0.142227 32.4844 0.134343C34.2062 0.500457 35.7715 1.22702 37.1476 2.30609C38.51 3.37383 39.9949 4.13893 41.6554 4.63199C44.5379 5.4889 45.7133 7.69352 46.0873 10.4751C46.1939 11.2685 46.2551 12.0676 46.3537 12.8622C46.4716 13.812 46.8978 14.6248 47.5053 15.3513C47.876 15.7956 48.2829 16.2048 48.7193 16.5823C50.7323 18.3301 51.1325 20.5291 50.5011 23.0023C50.3028 23.7776 50.0432 24.5382 49.795 25.301C49.3903 26.5422 49.4311 27.7663 49.8913 28.9826C49.9979 29.2637 50.0931 29.5493 50.1871 29.8349C50.5907 31.0534 50.5181 32.2481 50.0251 33.4292C49.4526 34.7984 48.5391 35.9183 47.494 36.9453C46.8853 37.5426 46.2698 38.1331 45.6578 38.7259C44.9777 39.3834 44.59 40.1711 44.5946 41.1301C44.6002 42.3066 44.063 43.1771 43.1199 43.8493C42.3605 44.3911 41.5614 44.8592 40.7124 45.2333C39.4179 45.8045 38.3785 46.6433 37.5613 47.8165C36.3507 49.5552 34.5689 50.2874 32.5128 50.3407C31.1299 50.3759 29.8389 50.598 28.6533 51.3677C27.3056 52.2427 25.9069 52.152 24.507 51.4481C24.0797 51.2328 23.6762 50.9845 23.284 50.7136C22.5019 50.1696 21.6937 49.6686 20.8583 49.2072C19.1615 48.2698 17.3922 47.9423 15.4947 48.4308C15.2283 48.4988 14.9506 48.5204 14.682 48.5782C13.2652 48.8808 12.0047 48.5011 10.8395 47.7031C9.87832 47.0446 9.08148 46.2171 8.36852 45.3013C7.6601 44.3911 6.99361 43.4492 6.20131 42.6059C5.68557 42.0572 5.17211 41.5075 4.50675 41.1312C4.43875 41.0927 4.39794 41.0337 4.43535 40.8637L4.43761 40.8614Z" fill="#F8F4E8"/>
</svg>
