<svg width="200" height="200" viewBox="0 0 200 200" fill="none" xmlns="http://www.w3.org/2000/svg">
<g clip-path="url(#clip0_45_159)">
<rect width="200" height="200" fill="#CEDB45"/>
<path d="M94.9039 58.8354C92.3944 62.696 98.1854 66.46 100.888 62.7925C109.188 51.4038 114.979 39.5326 127.912 30.0742C168.353 0.540825 211.496 24.0903 199.431 75.5324C188.718 121.184 143.548 89.4304 116.33 86.2454C110.926 85.7629 111.891 92.5189 115.944 93.8701C127.237 97.8272 136.309 99.1783 150.208 101.302C165.168 103.618 180.224 107.189 192.096 117.323C210.337 129.58 213.909 159.21 195.184 174.17C171.441 192.99 137.661 184.69 130.036 153.709C127.044 140.776 125.5 126.009 115.751 116.261C114.207 114.717 112.084 113.752 109.864 113.849C101.66 114.331 108.03 128.615 112.952 132.765C132.835 151.006 130.036 189.13 105.135 201.58C85.4452 211.135 55.5252 222.717 41.2408 197.719C8.03914 139.618 56.8764 135.564 76.6623 125.43C82.7428 122.342 78.2065 112.98 72.0295 115.875C67.5897 117.999 63.6326 121.666 59.5789 124.948C43.3641 138.363 17.9803 129.387 15.1813 108.54C12.9615 91.9398 25.2191 73.9881 65.7559 87.7897C70.8713 88.7548 72.2225 80.9372 70.0026 77.6557C59.2893 67.1356 44.2328 77.6557 32.2647 79.3929C10.8381 84.8942 -4.6045 63.4681 -7.01741 44.8408C-8.36864 9.51664 30.4309 -4.18837 59.0963 -11.0409C92.2014 -18.955 131.773 0.0582516 114.014 35.479C110.539 43.2966 100.116 50.7282 94.8073 58.8354H94.9039ZM82.4532 100.047C97.2202 115.007 110.829 95.5108 99.2471 81.6128C86.5069 68.4868 74.0563 87.7897 82.4532 100.047Z" fill="#2F2D32"/>
</g>
<defs>
<clipPath id="clip0_45_159">
<rect width="200" height="200" fill="white"/>
</clipPath>
</defs>
</svg>
