<svg width="1219" height="310" viewBox="0 0 1219 310" fill="none" xmlns="http://www.w3.org/2000/svg">
<g clip-path="url(#clip0_176_5)">
<path d="M1014.14 81.0301C1026.79 71.8077 1031.56 63.6666 1036.46 61.3769C1052.87 53.6173 1054.46 49.6739 1064.51 56.3522C1076.47 64.239 1076.21 71.4897 1066.1 82.3022C1050.01 99.4113 1042.89 97.8849 1029.21 100.493C1020.82 102.083 1004.15 103.418 1001.23 97.9485C998.746 93.2419 1008.92 84.8463 1014.07 81.0937L1014.14 81.0301Z" fill="#CEDB45"/>
<path d="M260.324 44.9669C260.006 75.5599 246.713 101.319 231.894 126.124C223.689 139.926 212.813 151.82 200.538 161.869C171.09 185.911 155.38 215.995 157.225 255.556C157.606 263.125 157.352 270.757 157.352 278.326C157.352 301.095 149.402 310.127 128.158 310.063C118.427 310.063 108.76 307.964 99.8554 302.367C90.5695 296.58 84.5909 289.329 84.8453 278.071C85.2905 259.817 84.4637 241.372 85.0361 223.118C85.5449 208.299 82.0468 194.688 74.0329 182.095C46.8748 139.544 28.1121 96.04 3.56165 61.7581C-3.24379 52.2813 -0.381692 46.3026 12.9748 38.6703C33.7727 26.7765 72.4428 27.2854 79.3119 49.8644C82.6192 60.7404 88.7886 70.6625 94.0676 81.0297C97.2477 87.2628 100.364 93.8775 104.944 99.0929C114.738 110.223 124.533 108.633 131.338 94.5135C133.883 89.2345 135.218 83.4466 136.999 77.786C142.087 61.5673 149.656 46.3662 159.196 31.9284C175.733 6.93247 213.004 -6.42412 239.589 2.9891C259.688 10.1126 259.688 27.2854 260.324 44.9033V44.9669Z" fill="#CEDB45"/>
<path d="M606.892 116.393C607.465 125.488 605.684 135.983 606.765 147.94C609.309 176.18 602.377 212.433 592.963 247.606C587.875 266.687 575.028 280.361 553.403 285.449C528.662 291.237 503.73 294.608 479.115 292.573C462.324 291.174 449.922 283.478 443.562 266.687C439.11 254.856 435.484 242.199 426.962 232.468C420.856 225.472 414.305 216.313 403.047 220.193C392.298 223.945 390.072 234.313 389.373 244.807C388.991 250.659 388.482 256.51 387.719 262.362C384.73 285.131 376.398 294.608 356.172 297.725C335.12 300.968 320.428 293.145 313.877 273.492C301.856 237.238 290.726 200.349 279.214 163.523C274.126 147.113 268.974 130.767 263.822 114.358C261.659 107.362 261.85 101.319 266.875 95.277C278.323 81.348 321.064 82.6837 325.452 109.27C326.852 117.665 329.396 125.997 332.512 133.82C335.565 141.453 338.046 151.12 347.777 151.947C358.907 152.901 362.151 142.534 366.031 134.647C370.419 125.743 374.363 116.457 376.97 106.98C382.058 88.5351 394.97 83.7013 411.633 83.2561C429.379 82.7473 443.689 88.5351 451.894 105.39C459.78 121.609 463.342 138.909 467.921 155.7C470.974 166.894 472.119 182.476 486.493 182.858C500.295 183.24 504.175 168.547 509.008 158.18C516.386 142.343 515.241 125.17 517.595 108.761C519.948 92.0333 525.863 86.7543 543.481 86.1818C557.346 85.7366 570.957 88.4715 584.314 91.8425C600.278 95.9131 605.938 102.083 606.829 116.393H606.892Z" fill="#CEDB45"/>
<path d="M843.62 213.133C849.28 227.317 845.846 240.737 840.757 254.73C837.387 263.952 829.436 268.341 817.479 270.694C801.006 273.874 785.106 273.111 770.35 268.786C750.824 263.062 731.298 261.09 709.61 267.959C698.797 271.394 686.967 271.076 675.837 270.694C651.541 269.803 631.315 256.701 627.626 239.91C622.538 216.632 633.669 195.134 658.156 183.876C676.028 175.671 695.554 171.792 715.334 169.057C728.245 167.276 739.757 163.269 750.379 157.799C758.202 153.728 756.485 150.103 749.234 146.796C737.658 141.517 725.828 137.637 712.663 142.598C704.903 145.524 696.571 147.75 688.494 150.421C678.445 153.792 667.95 153.792 657.838 150.93C642.7 146.605 640.092 139.227 647.979 127.588C658.601 111.941 676.6 105.899 696.253 103.291C735.369 98.1396 772.83 106.98 807.748 122.881C833.952 134.838 846.545 151.439 844.701 172.746C844.319 177.261 844.637 182.222 844.001 186.229C842.729 194.434 840.121 204.356 843.62 213.133ZM744.973 216.123C747.835 210.398 751.969 203.657 743.637 199.459C733.461 194.307 722.203 196.406 711.645 200.667C705.794 203.021 700.387 205.819 696.253 210.017C690.211 216.25 691.292 221.847 697.843 226.999C703.44 231.387 710.5 231.451 717.814 231.324C732.888 231.006 739.439 227.444 745.036 216.123H744.973Z" fill="#CEDB45"/>
<path d="M975.022 216.44C1000.72 245.062 987.234 260.517 937.433 263.316C920.642 264.27 905.632 261.408 891.194 256.955C880.382 253.648 874.403 247.415 873.386 239.21C872.75 234.313 873.259 229.224 873.259 224.263C880.318 184.448 874.912 144.315 885.089 105.326C887.442 96.2311 886.488 86.6906 887.569 77.4046C888.905 65.6381 900.544 60.1683 921.087 60.5499C940.677 60.9315 952.761 67.5462 953.715 78.9947C956.832 116.202 964.273 153.156 963.701 190.49C963.574 200.031 967.644 208.172 975.022 216.377V216.44Z" fill="#CEDB45"/>
<path d="M1093.64 208.427C1090.27 210.271 1086.71 212.497 1087.41 215.55C1088.42 220.003 1094.34 219.176 1098.92 219.43C1116.54 220.321 1132.56 215.868 1147.83 209.635C1166.53 201.939 1185.1 201.558 1204.12 209.953C1219.13 216.568 1220.97 221.911 1210.8 231.642C1194.7 247.034 1172.57 254.284 1147.19 258.037C1140.83 258.991 1134.15 259.118 1127.79 259.818C1079.33 265.097 1042.06 256.256 1015.92 231.515C988.506 205.628 986.152 176.753 1010.89 143.043C1020.62 129.75 1036.65 119.065 1055.16 112.196C1112.34 88.4083 1189.36 85.6098 1216.52 154.174C1222.5 168.293 1218.55 176.816 1202.46 182.032C1191.84 185.466 1180.52 186.484 1169.07 187.12C1146.05 188.456 1124.81 195.388 1104.13 203.211C1100.51 204.611 1097.14 206.519 1093.83 208.363L1093.64 208.427ZM1076.53 166.831C1076.79 174.463 1085.05 176.371 1093.51 177.579C1108.01 179.615 1127.73 170.901 1132.63 159.771C1134.92 154.619 1132.63 151.057 1126.33 150.294C1116.41 149.149 1105.6 149.658 1096.38 151.312C1087.15 152.965 1076.4 161.361 1076.53 166.831Z" fill="#CEDB45"/>
</g>
<defs>
<clipPath id="clip0_176_5">
<rect width="1219" height="310" fill="white"/>
</clipPath>
</defs>
</svg>
